<?xml version="1.0" encoding="UTF-8" standalone="no"?>
<svg version="1.1" xmlns="http://www.w3.org/2000/svg" style="font-family: Arial; " width="800" height="450" viewBox="0 0 800 450"><title>Global trends in internet traffic, data centre workloads and data centre energy use, 2015-2021</title><defs><clipPath id="chart-clipPath-exact"><rect height="315" width="490"></rect></clipPath><clipPath id="chart-clipPath-buffer"><rect x="-10" y="-10" height="335" width="510"></rect></clipPath></defs><g class="scaler"><rect width="800" height="450" fill="rgb(255, 255, 255)" fill-opacity="1"></rect><g class="canvas" transform="translate(85,63)"><g class="grid"><g class="axis-grid x" transform="translate(0,314)"></g><g class="axis-grid y" transform="translate(1,0)"></g><g class="axis-grid y2" transform="translate(489.5,0)"></g><g class="axis-grid x2" transform="translate(0,1)"></g></g><rect class="trigger-layer" height="379" width="724" opacity="0"></rect><g class="chart"><g class="series s0"><path class="line" clip-path="url(#chart-clipPath-exact)" visibility="visible" fill="none" stroke="rgb(120, 140, 139)" stroke-opacity="1" stroke-width="1" d="M2,313L83.33333333333333,311.748L164.66666666666666,311.748L246,310.496L327.3333333333333,312.374L408.66666666666663,313L490,313"></path><path class="point" clip-path="url(#chart-clipPath-buffer)" visibility="hidden" transform="translate(2,313)"></path><path class="point" clip-path="url(#chart-clipPath-buffer)" visibility="hidden" transform="translate(83.33333333333333,311.748)"></path><path class="point" clip-path="url(#chart-clipPath-buffer)" visibility="hidden" transform="translate(164.66666666666666,311.748)"></path><path class="point" clip-path="url(#chart-clipPath-buffer)" visibility="hidden" transform="translate(246,310.496)"></path><path class="point" clip-path="url(#chart-clipPath-buffer)" visibility="hidden" transform="translate(327.3333333333333,312.374)"></path><path class="point" clip-path="url(#chart-clipPath-buffer)" visibility="hidden" transform="translate(408.66666666666663,313)"></path><path class="point" clip-path="url(#chart-clipPath-buffer)" visibility="hidden" transform="translate(490,313)"></path></g><g class="series s1"><path class="line" clip-path="url(#chart-clipPath-exact)" visibility="visible" fill="none" stroke="rgb(0, 119, 149)" stroke-opacity="1" stroke-width="1" d="M2,313L83.33333333333333,292.342L164.66666666666666,270.432L246,246.644L327.3333333333333,225.986L408.66666666666663,204.076L490,179.662"></path><path class="point" clip-path="url(#chart-clipPath-buffer)" visibility="hidden" transform="translate(2,313)"></path><path class="point" clip-path="url(#chart-clipPath-buffer)" visibility="hidden" transform="translate(83.33333333333333,292.342)"></path><path class="point" clip-path="url(#chart-clipPath-buffer)" visibility="hidden" transform="translate(164.66666666666666,270.432)"></path><path class="point" clip-path="url(#chart-clipPath-buffer)" visibility="hidden" transform="translate(246,246.644)"></path><path class="point" clip-path="url(#chart-clipPath-buffer)" visibility="hidden" transform="translate(327.3333333333333,225.986)"></path><path class="point" clip-path="url(#chart-clipPath-buffer)" visibility="hidden" transform="translate(408.66666666666663,204.076)"></path><path class="point" clip-path="url(#chart-clipPath-buffer)" visibility="hidden" transform="translate(490,179.662)"></path></g><g class="series s2"><path class="line" clip-path="url(#chart-clipPath-exact)" visibility="visible" fill="none" stroke="rgb(0, 186, 201)" stroke-opacity="1" stroke-width="1" d="M2,313L83.33333333333333,289.212L164.66666666666666,261.668L246,227.238L327.3333333333333,180.288L408.66666666666663,122.696L490,50.70600000000002"></path><path class="point" clip-path="url(#chart-clipPath-buffer)" visibility="hidden" transform="translate(2,313)"></path><path class="point" clip-path="url(#chart-clipPath-buffer)" visibility="hidden" transform="translate(83.33333333333333,289.212)"></path><path class="point" clip-path="url(#chart-clipPath-buffer)" visibility="hidden" transform="translate(164.66666666666666,261.668)"></path><path class="point" clip-path="url(#chart-clipPath-buffer)" visibility="hidden" transform="translate(246,227.238)"></path><path class="point" clip-path="url(#chart-clipPath-buffer)" visibility="hidden" transform="translate(327.3333333333333,180.288)"></path><path class="point" clip-path="url(#chart-clipPath-buffer)" visibility="hidden" transform="translate(408.66666666666663,122.696)"></path><path class="point" clip-path="url(#chart-clipPath-buffer)" visibility="hidden" transform="translate(490,50.70600000000002)"></path></g></g><g class="axes"><g class="axis-labels"><g class="bottom"><g class="label" transform="translate(245,341)"><text style="text-anchor: middle; font-family: Arial; font-size: 16px; " fill="rgb(102, 102, 102)" dy="16" transform="rotate(0)">2015</text></g></g><g class="left"><g class="label" transform="translate(-60,157.5)"><text style="text-anchor: middle; font-family: Arial; font-size: 16px; " fill="rgb(102, 102, 102)" dy="16" transform="rotate(270)"></text></g></g></g><g class="axis bottom" transform="translate(0,314)"><g class="tick major" style="opacity: 1; display: block; " transform="translate(2,0)"><line y2="7" x2="0"></line><text y="10" x="0" dy="7" style="fill: #666666; fill-opacity: 1; font-family: Arial; font-size: 14px; text-anchor: middle; " transform="rotate(0, 0, 10)translate(0,0)" data-org-x="0" data-org-y="10">2015</text></g><g class="tick major" style="opacity: 1; display: block; " transform="translate(83.33333333333333,0)"><line y2="7" x2="0"></line><text y="10" x="0" dy="7" style="fill: #666666; fill-opacity: 1; font-family: Arial; font-size: 14px; text-anchor: middle; " transform="rotate(0, 0, 10)translate(0,0)" data-org-x="0" data-org-y="10">2016</text></g><g class="tick major" style="opacity: 1; display: block; " transform="translate(164.66666666666666,0)"><line y2="7" x2="0"></line><text y="10" x="0" dy="7" style="fill: #666666; fill-opacity: 1; font-family: Arial; font-size: 14px; text-anchor: middle; " transform="rotate(0, 0, 10)translate(0,0)" data-org-x="0" data-org-y="10">2017</text></g><g class="tick major" style="opacity: 1; display: block; " transform="translate(246,0)"><line y2="7" x2="0"></line><text y="10" x="0" dy="7" style="fill: #666666; fill-opacity: 1; font-family: Arial; font-size: 14px; text-anchor: middle; " transform="rotate(0, 0, 10)translate(0,0)" data-org-x="0" data-org-y="10">2018</text></g><g class="tick major" style="opacity: 1; display: block; " transform="translate(327.3333333333333,0)"><line y2="7" x2="0"></line><text y="10" x="0" dy="7" style="fill: #666666; fill-opacity: 1; font-family: Arial; font-size: 14px; text-anchor: middle; " transform="rotate(0, 0, 10)translate(0,0)" data-org-x="0" data-org-y="10">2019</text></g><g class="tick major" style="opacity: 1; display: block; " transform="translate(408.66666666666663,0)"><line y2="7" x2="0"></line><text y="10" x="0" dy="7" style="fill: #666666; fill-opacity: 1; font-family: Arial; font-size: 14px; text-anchor: middle; " transform="rotate(0, 0, 10)translate(0,0)" data-org-x="0" data-org-y="10">2020</text></g><g class="tick major" style="opacity: 1; display: block; " transform="translate(490,0)"><line y2="7" x2="0"></line><text y="10" x="0" dy="7" style="fill: #666666; fill-opacity: 1; font-family: Arial; font-size: 14px; text-anchor: middle; " transform="rotate(0, 0, 10)translate(0,0)" data-org-x="0" data-org-y="10">2021</text></g><path class="domain" d="M2,0V0H490V0" stroke-width="2" fill="none" stroke="rgb(188, 188, 188)" stroke-opacity="1"></path><path class="filler" d="M0,0V0H2V0" stroke-width="2" fill="none" stroke="rgb(188, 188, 188)" stroke-opacity="1"></path></g><g class="axis left" transform="translate(1,0)"><g class="tick major" style="opacity: 1; display: block; " transform="translate(0,313)"><line x2="-7" y2="0"></line><text x="-10" y="0" dy="7" style="fill: #666666; fill-opacity: 1; font-family: Arial; font-size: 14px; text-anchor: end; " transform="rotate(0, -10, 0)translate(0,0)" data-org-x="-10" data-org-y="0">100</text></g><g class="tick major" style="opacity: 1; display: block; " transform="translate(0,250.4)"><line x2="-7" y2="0"></line><text x="-10" y="0" dy="7" style="fill: #666666; fill-opacity: 1; font-family: Arial; font-size: 14px; text-anchor: end; " transform="rotate(0, -10, 0)translate(0,0)" data-org-x="-10" data-org-y="0">200</text></g><g class="tick major" style="opacity: 1; display: block; " transform="translate(0,187.8)"><line x2="-7" y2="0"></line><text x="-10" y="0" dy="7" style="fill: #666666; fill-opacity: 1; font-family: Arial; font-size: 14px; text-anchor: end; " transform="rotate(0, -10, 0)translate(0,0)" data-org-x="-10" data-org-y="0">300</text></g><g class="tick major" style="opacity: 1; display: block; " transform="translate(0,125.20000000000002)"><line x2="-7" y2="0"></line><text x="-10" y="0" dy="7" style="fill: #666666; fill-opacity: 1; font-family: Arial; font-size: 14px; text-anchor: end; " transform="rotate(0, -10, 0)translate(0,0)" data-org-x="-10" data-org-y="0">400</text></g><g class="tick major" style="opacity: 1; display: block; " transform="translate(0,62.599999999999994)"><line x2="-7" y2="0"></line><text x="-10" y="0" dy="7" style="fill: #666666; fill-opacity: 1; font-family: Arial; font-size: 14px; text-anchor: end; " transform="rotate(0, -10, 0)translate(0,0)" data-org-x="-10" data-org-y="0">500</text></g><g class="tick major" style="opacity: 1; display: block; " transform="translate(0,0)"><line x2="-7" y2="0"></line><text x="-10" y="0" dy="7" style="fill: #666666; fill-opacity: 1; font-family: Arial; font-size: 14px; text-anchor: end; " transform="rotate(0, -10, 0)translate(0,0)" data-org-x="-10" data-org-y="0">600</text></g><path class="domain" d="M0,0H0V313H0" stroke-width="2" fill="none" stroke="rgb(188, 188, 188)" stroke-opacity="1"></path></g></g></g><g class="label" transform="translate(25,25)"><text style="text-anchor: start; font-family: Arial; font-size: 13px; " fill="rgb(102, 102, 102)" dy="13" transform="rotate(0)">Global trends in internet traffic, data centre workloads and data centre energy use, 2015-2021</text></g><g class="legend" transform="translate(599.1013488769531,25)"><g class="row" transform="translate(0,0)"><text class="key" style="font-size: 14px; fill: #666666; fill-opacity: 1; " dx="28" dy="14">Data Centre Energy Use</text><path class="shape" d="M0,7.898654169668588A7.898654169668588,7.898654169668588 0 1,1 0,-7.898654169668588A7.898654169668588,7.898654169668588 0 1,1 0,7.898654169668588Z" style="fill: #788c8b; fill-opacity: 1; " transform="translate(14,9.24)"></path></g><g class="row" transform="translate(0,30.138652801513672)"><text class="key" style="font-size: 14px; fill: #666666; fill-opacity: 1; " dx="28" dy="14">Data Centre Worklaod</text><path class="shape" d="M0,7.898654169668588A7.898654169668588,7.898654169668588 0 1,1 0,-7.898654169668588A7.898654169668588,7.898654169668588 0 1,1 0,7.898654169668588Z" style="fill: #007795; fill-opacity: 1; " transform="translate(14,9.24)"></path></g><g class="row" transform="translate(0,60.277305603027344)"><text class="key" style="font-size: 14px; fill: #666666; fill-opacity: 1; " dx="28" dy="14">Internet Traffic</text><path class="shape" d="M0,7.898654169668588A7.898654169668588,7.898654169668588 0 1,1 0,-7.898654169668588A7.898654169668588,7.898654169668588 0 1,1 0,7.898654169668588Z" style="fill: #00bac9; fill-opacity: 1; " transform="translate(14,9.24)"></path></g></g></g></svg>